<?xml version="1.0" encoding="utf-8"?>
<!-- Generator: Adobe Illustrator 22.1.0, SVG Export Plug-In . SVG Version: 6.00 Build 0)  -->
<svg version="1.1" id="Layer_1" xmlns="http://www.w3.org/2000/svg" xmlns:xlink="http://www.w3.org/1999/xlink" x="0px" y="0px"
	 viewBox="0 0 2.1 1.9" enable-background="new 0 0 2.1 1.9" xml:space="preserve">
<g>
	<path d="M0.8,1.4H0c0,0,0,0,0,0V0c0,0,0,0,0,0h2c0,0,0,0,0,0v1.3c0,0,0,0,0,0H1.3c0,0,0,0.1,0,0.1v0.3c0,0,0,0,0,0c0,0,0,0,0,0
		L1,1.8L0.8,1.8c0,0,0,0,0,0c0,0,0,0,0,0L0.8,1.4C0.8,1.5,0.8,1.4,0.8,1.4z M1.2,1.6c0,0-0.1,0-0.2,0s-0.1,0-0.2,0v0.2L1,1.7
		c0,0,0,0,0,0l0.1,0.1C1.2,1.8,1.2,1.6,1.2,1.6z M1.3,1.3H2V0.1H0.1v1.3h0.7c0,0,0,0,0,0c0,0,0,0,0-0.1H0.4c0,0,0,0,0,0
		c0,0,0-0.1,0-0.1l0,0c0,0-0.1,0-0.1,0c0,0,0,0,0,0V0.4c0,0,0,0,0,0c0,0,0.1,0,0.1,0c0,0,0-0.1,0-0.1c0,0,0,0,0,0h1.3c0,0,0,0,0,0
		c0,0,0,0.1,0,0.1s0.1,0,0.1,0c0,0,0,0,0,0V1c0,0,0,0,0,0c0,0-0.1,0-0.1,0s0,0.1,0,0.1c0,0,0,0,0,0H1.3C1.3,1.3,1.3,1.3,1.3,1.3
		C1.3,1.3,1.3,1.3,1.3,1.3z M1,1c0.1,0,0.2,0,0.2,0.1h0c0,0,0,0,0.1,0.1h0.4c0,0,0-0.1,0.1-0.1l0,0c0,0,0.1,0,0.1-0.1V0.4
		c0,0-0.1,0-0.1-0.1v0c0,0,0-0.1-0.1-0.1H0.4c0,0,0,0.1-0.1,0.1c0,0-0.1,0-0.1,0.1V1c0,0,0.1,0,0.1,0.1l0,0c0,0,0,0.1,0.1,0.1h0.4
		c0,0,0-0.1,0.1-0.1l0,0C0.9,1,1,1,1,1z M1.2,1.1c0,0-0.1-0.1-0.2-0.1c-0.1,0-0.1,0-0.2,0.1l0,0c0,0-0.1,0.1-0.1,0.2
		c0,0.1,0,0.1,0.1,0.2l0,0c0,0,0.1,0.1,0.2,0.1c0.1,0,0.1,0,0.2-0.1l0,0c0,0,0.1-0.1,0.1-0.2C1.3,1.2,1.2,1.2,1.2,1.1L1.2,1.1z
		 M0.5,0.9C0.5,0.9,0.5,0.9,0.5,0.9C0.5,0.9,0.5,0.8,0.5,0.9l1-0.1c0,0,0,0,0,0c0,0,0,0,0,0C1.5,0.9,0.5,0.9,0.5,0.9z M0.5,0.7
		C0.5,0.7,0.5,0.7,0.5,0.7C0.5,0.7,0.5,0.7,0.5,0.7l1-0.1c0,0,0,0,0,0c0,0,0,0,0,0C1.5,0.7,0.5,0.7,0.5,0.7z M0.7,0.4
		C0.7,0.4,0.7,0.4,0.7,0.4C0.7,0.3,0.7,0.3,0.7,0.4l0.7-0.1c0,0,0,0,0,0c0,0,0,0,0,0H0.7z"/>
</g>
</svg>
