<?xml version="1.0" encoding="utf-8"?>
<!-- Generator: Adobe Illustrator 22.1.0, SVG Export Plug-In . SVG Version: 6.00 Build 0)  -->
<svg version="1.1" id="Layer_1" xmlns="http://www.w3.org/2000/svg" xmlns:xlink="http://www.w3.org/1999/xlink" x="0px" y="0px"
	 viewBox="0 0 1600 198" enable-background="new 0 0 1600 198" xml:space="preserve">
<path fill="#2D57A7" d="M1600,54.5c-50,0-50-22-100-22c-50,0-50,22-100,22c-50,0-50-22-100-22c-50,0-50,22-100,22
	c-50,0-50-22-100-22s-50,22-100,22c-50,0-50-22-100-22c-50,0-50,22-100,22c-50,0-50-22-100-22c-50,0-50,22-100,22
	c-50,0-50-22-100-22c-50,0-50,22-100,22c-50,0-50-22-100-22c-50,0-50,22-100,22c-50,0-50-22-100-22s-50,22-100,22V99h1600V54.5z"/>
</svg>
