<?xml version="1.0" encoding="utf-8"?>
<!-- Generator: Adobe Illustrator 22.1.0, SVG Export Plug-In . SVG Version: 6.00 Build 0)  -->
<svg version="1.1" id="Layer_1" xmlns="http://www.w3.org/2000/svg" xmlns:xlink="http://www.w3.org/1999/xlink" x="0px" y="0px"
	 viewBox="0 0 175.3 39.7" enable-background="new 0 0 175.3 39.7" xml:space="preserve">
<g>
	<path fill="#FFFFFF" d="M23.5,35.4c-1,0.3-2,0.7-4.1,0.7c-2,0-3.1-0.3-4.1-0.7c-0.9-0.3-1.7-0.6-3.4-0.6c-0.7,0-1.3,0.1-1.8,0.1
		c2.7,1.7,5.9,2.7,9.3,2.7s6.6-1,9.3-2.7c-0.5-0.1-1.1-0.1-1.8-0.1C25.2,34.8,24.4,35.1,23.5,35.4z"/>
	<path fill="#FFFFFF" d="M7.8,25.9c0.8-0.3,1.8-0.6,3.4-0.6V15.2l8.2-5.1l3.6,2.3v-0.7h2.7V14l1.9,1.2v10.1c1.6,0.1,2.6,0.4,3.4,0.6
		c0.9,0.3,1.7,0.6,3.4,0.6c0.5,0,0.9,0,1.2-0.1c0.7-1.9,1.1-4,1.1-6.2c0-9.6-7.8-17.4-17.4-17.4C9.8,2.8,2,10.6,2,20.2
		c0,2.2,0.4,4.2,1.1,6.2c0.4,0,0.8,0.1,1.2,0.1C6,26.5,6.9,26.2,7.8,25.9z"/>
	<path fill="#FFFFFF" d="M34.4,28.6c-2,0-3.1-0.3-4.1-0.7c-0.9-0.3-1.7-0.6-3.4-0.6c-1.7,0-2.6,0.3-3.4,0.6c-1,0.3-2,0.7-4.1,0.7
		c-2,0-3.1-0.3-4.1-0.7c-0.9-0.3-1.7-0.6-3.4-0.6s-2.6,0.3-3.4,0.6c-1,0.3-2,0.7-4.1,0.7c-0.1,0-0.2,0-0.2,0c0.3,0.5,0.6,1.1,1,1.6
		c1.2-0.1,1.9-0.3,2.7-0.5c1-0.3,2-0.7,4.1-0.7s3.1,0.3,4.1,0.7c0.9,0.3,1.7,0.6,3.4,0.6c1.7,0,2.6-0.3,3.4-0.6c1-0.3,2-0.7,4.1-0.7
		c2,0,3.1,0.3,4.1,0.7c0.7,0.2,1.5,0.5,2.7,0.5c0.4-0.5,0.7-1,1-1.6C34.6,28.6,34.5,28.6,34.4,28.6z"/>
	<path fill="#FFFFFF" d="M26.9,31.1c-1.7,0-2.6,0.3-3.4,0.6c-1,0.3-2,0.7-4.1,0.7c-2,0-3.1-0.3-4.1-0.7c-0.9-0.3-1.7-0.6-3.4-0.6
		s-2.6,0.3-3.4,0.6C8,31.9,7.4,32,6.7,32.2c0.4,0.4,0.8,0.8,1.2,1.2c0.9-0.3,2-0.6,4-0.6s3.1,0.3,4.1,0.7c0.9,0.3,1.7,0.6,3.4,0.6
		c1.7,0,2.6-0.3,3.4-0.6c1-0.3,2-0.7,4.1-0.7c2,0,3,0.3,4,0.6c0.4-0.4,0.8-0.8,1.2-1.2c-0.7-0.1-1.3-0.3-1.8-0.5
		C29.5,31.4,28.6,31.1,26.9,31.1z"/>
	<g>
		<rect x="17.8" y="20.2" fill="#FFFFFF" width="3.2" height="5"/>
	</g>
</g>
<g>
	<path fill="#FFFFFF" d="M46.4,23.9c-1.3-1.1-2-2.6-2-4.5c0-0.6,0.1-1.3,0.2-2C45.8,11.8,49.4,9,55.5,9c1.9,0,3.5,0.2,4.8,0.7
		l-0.9,4c-1.2-0.5-2.7-0.7-4.5-0.7c-1.5,0-2.7,0.4-3.7,1.1c-1,0.7-1.6,1.8-1.9,3.4c-0.1,0.6-0.2,1.2-0.2,1.7c0,0.9,0.3,1.5,0.8,1.9
		s1.4,0.6,2.5,0.6c0.8,0,1.6-0.1,2.4-0.3l0.5-2.3h-3.2l0.6-2.9h7.1L58.2,24c-0.8,0.4-1.7,0.8-2.8,1.1c-1.1,0.3-2.3,0.4-3.7,0.4
		C49.5,25.4,47.7,24.9,46.4,23.9z"/>
	<path fill="#FFFFFF" d="M61.3,13.4h4.5l-0.1,0.9c0.6-0.3,1.3-0.6,2.1-0.8c0.8-0.2,1.6-0.4,2.3-0.4l-0.7,3.5c-0.7,0-1.5,0.2-2.3,0.3
		c-0.8,0.2-1.5,0.4-2,0.6l-1.6,7.7h-4.7L61.3,13.4z"/>
	<path fill="#FFFFFF" d="M70.3,24.3c-1-0.8-1.6-1.9-1.6-3.4c0-0.5,0.1-1,0.2-1.5c0.4-2,1.3-3.5,2.5-4.6c1.3-1.1,3-1.6,5.1-1.6
		c1.6,0,2.8,0.4,3.8,1.2c0.9,0.8,1.4,1.8,1.4,3.1c0,0.4,0,0.8-0.1,1.2l-0.4,2.1H73c0,0.6,0.3,1.1,0.8,1.3c0.5,0.3,1.4,0.4,2.7,0.4
		c0.7,0,1.3-0.1,2.1-0.2c0.7-0.1,1.3-0.3,1.8-0.4l-0.6,2.8c-1.3,0.5-2.9,0.8-5,0.8C72.8,25.4,71.3,25,70.3,24.3z M77.6,18.1l0.1-0.4
		c0-0.2,0-0.3,0-0.4c0-0.8-0.6-1.2-1.7-1.2c-0.8,0-1.4,0.2-1.8,0.5s-0.7,0.8-0.8,1.5H77.6z"/>
	<path fill="#FFFFFF" d="M82.9,24.5c-0.8-0.6-1.2-1.6-1.2-3c0-0.6,0.1-1.2,0.2-1.8c0.3-1.3,0.8-2.5,1.5-3.5s1.5-1.8,2.5-2.3
		s2-0.8,3.2-0.8c0.6,0,1.1,0.1,1.6,0.2c0.5,0.1,0.8,0.3,1.1,0.6l0.1-0.6h4.7l-2.5,11.8H90v-0.9c-1.1,0.8-2.4,1.2-3.8,1.2
		C84.8,25.4,83.6,25.1,82.9,24.5z M89.3,21.9c0.4-0.1,0.7-0.3,0.9-0.5l0.9-4.2c-0.4-0.4-0.9-0.6-1.6-0.6c-1.4,0-2.4,1.1-2.9,3.2
		c-0.1,0.4-0.1,0.8-0.1,1.1c0,0.4,0.1,0.8,0.4,1s0.7,0.3,1.3,0.3C88.6,22,89,22,89.3,21.9z"/>
	<path fill="#FFFFFF" d="M98,24.6c-0.6-0.6-0.9-1.3-0.9-2.4c0-0.4,0-0.8,0.1-1.2l0.9-4.2h-1.5l0.7-3.5h1.5l0.5-2.4l4.9-1.1l-0.7,3.5
		h2.7l-0.9,3.5h-2.5l-0.8,3.8c0,0.2-0.1,0.4-0.1,0.5c0,0.3,0.1,0.5,0.3,0.6c0.2,0.1,0.5,0.2,1,0.2s1-0.1,1.5-0.2l-0.7,3.1
		c-0.9,0.4-2,0.5-3.3,0.5C99.6,25.4,98.7,25.2,98,24.6z"/>
	<path fill="#FFFFFF" d="M111.9,9.1h4.7L114,21.6h7.2l-0.7,3.6h-11.9L111.9,9.1z"/>
	<path fill="#FFFFFF" d="M122.7,24.5c-0.8-0.6-1.2-1.6-1.2-3c0-0.6,0.1-1.2,0.2-1.8c0.3-1.3,0.8-2.5,1.5-3.5s1.5-1.8,2.5-2.3
		s2-0.8,3.2-0.8c0.6,0,1.1,0.1,1.6,0.2c0.5,0.1,0.8,0.3,1.1,0.6l0.1-0.6h4.7L134,25.2h-4.1v-0.9c-1.1,0.8-2.4,1.2-3.8,1.2
		C124.6,25.4,123.5,25.1,122.7,24.5z M129.2,21.9c0.4-0.1,0.7-0.3,0.9-0.5l0.9-4.2c-0.4-0.4-0.9-0.6-1.6-0.6c-1.4,0-2.4,1.1-2.9,3.2
		c-0.1,0.4-0.1,0.8-0.1,1.1c0,0.4,0.1,0.8,0.4,1s0.7,0.3,1.3,0.3C128.5,22,128.8,22,129.2,21.9z"/>
	<path fill="#FFFFFF" d="M138.5,8.4h4.7l-1.8,8.3l4-3.3h5.3l-5.8,5l3.5,6.8h-5l-2-4.4l-1.2,1l-0.7,3.4h-4.7L138.5,8.4z"/>
	<path fill="#FFFFFF" d="M149.8,24.3c-1-0.8-1.6-1.9-1.6-3.4c0-0.5,0.1-1,0.2-1.5c0.4-2,1.3-3.5,2.5-4.6c1.3-1.1,3-1.6,5.1-1.6
		c1.6,0,2.8,0.4,3.8,1.2c0.9,0.8,1.4,1.8,1.4,3.1c0,0.4,0,0.8-0.1,1.2l-0.4,2.1h-8.2c0,0.6,0.3,1.1,0.8,1.3c0.5,0.3,1.4,0.4,2.7,0.4
		c0.7,0,1.3-0.1,2.1-0.2c0.7-0.1,1.3-0.3,1.8-0.4l-0.6,2.8c-1.3,0.5-2.9,0.8-5,0.8C152.3,25.4,150.9,25,149.8,24.3z M157.2,18.1
		l0.1-0.4c0-0.2,0-0.3,0-0.4c0-0.8-0.6-1.2-1.7-1.2c-0.8,0-1.4,0.2-1.8,0.5c-0.4,0.3-0.7,0.8-0.8,1.5H157.2z"/>
	<path fill="#FFFFFF" d="M162.5,25.2c-0.9-0.1-1.5-0.3-2-0.5l0.7-3.4c0.5,0.3,1.2,0.5,1.9,0.6c0.8,0.1,1.4,0.2,2.1,0.2
		c0.7,0,1.2,0,1.5-0.1c0.2,0,0.4-0.2,0.4-0.4c0-0.2,0-0.3-0.2-0.4s-0.6-0.3-1.2-0.4l-1.2-0.4c-0.9-0.3-1.5-0.7-1.9-1.1
		s-0.6-1-0.6-1.6c0-0.3,0-0.6,0.1-0.8c0.2-1.2,0.9-2.2,1.9-2.8s2.6-0.9,4.6-0.9c0.7,0,1.5,0.1,2.3,0.2c0.8,0.1,1.4,0.2,1.9,0.4
		L172,17c-0.4-0.2-0.9-0.4-1.5-0.5s-1.1-0.2-1.6-0.2c-0.7,0-1.2,0-1.5,0.1c-0.4,0.1-0.6,0.2-0.6,0.4c0,0.2,0,0.3,0.2,0.4
		s0.6,0.2,1.1,0.4l1,0.3c1,0.3,1.7,0.7,2.2,1.1c0.4,0.4,0.7,1,0.7,1.6c0,0.2,0,0.6-0.1,0.9c-0.3,1.2-0.9,2.2-2,2.8
		c-1,0.6-2.6,0.9-4.6,0.9C164.3,25.4,163.3,25.4,162.5,25.2z"/>
</g>
<g>
	<path fill="#FFFFFF" d="M45.8,28.4h1.7L47,30.7h2.1l0.5-2.3h1.7l-1.4,6.4h-1.7l0.5-2.5h-2.1l-0.5,2.5h-1.7L45.8,28.4z"/>
	<path fill="#FFFFFF" d="M53.6,35c-0.3,0-0.6,0-0.9-0.1c-0.3-0.1-0.5-0.2-0.7-0.4s-0.3-0.4-0.4-0.7c-0.1-0.3-0.2-0.5-0.2-0.9
		s0.1-0.8,0.2-1.2c0.1-0.4,0.3-0.7,0.6-0.9c0.2-0.3,0.5-0.5,0.9-0.6c0.3-0.1,0.7-0.2,1.1-0.2c0.3,0,0.6,0,0.9,0.1
		c0.3,0.1,0.5,0.2,0.7,0.4c0.2,0.2,0.3,0.4,0.4,0.7c0.1,0.3,0.2,0.5,0.2,0.9s-0.1,0.8-0.2,1.2c-0.1,0.4-0.3,0.7-0.6,0.9
		c-0.2,0.3-0.5,0.5-0.9,0.6C54.4,34.9,54,35,53.6,35z M54.1,31.3c-0.2,0-0.3,0-0.4,0.1c-0.1,0.1-0.2,0.2-0.3,0.4
		c-0.1,0.2-0.2,0.3-0.2,0.5s-0.1,0.4-0.1,0.6c0,0.2,0,0.4,0.1,0.6s0.2,0.2,0.5,0.2c0.2,0,0.3,0,0.4-0.1c0.1-0.1,0.2-0.2,0.3-0.4
		s0.2-0.3,0.2-0.5s0.1-0.4,0.1-0.6c0-0.2,0-0.4-0.1-0.6C54.5,31.3,54.3,31.3,54.1,31.3z"/>
	<path fill="#FFFFFF" d="M59.5,34.8l0.6-2.9c0-0.1,0-0.1,0-0.1v-0.1c0-0.1,0-0.2-0.1-0.3c-0.1-0.1-0.2-0.1-0.3-0.1
		c-0.2,0-0.3,0.1-0.5,0.2C59.1,31.6,59,31.7,59,32l-0.6,2.8h-1.6l1-4.7h1.6l-0.1,0.5c0.4-0.5,0.8-0.7,1.3-0.7c0.3,0,0.5,0.1,0.7,0.2
		s0.3,0.3,0.4,0.6c0.2-0.3,0.5-0.5,0.8-0.6s0.5-0.2,0.8-0.2c0.4,0,0.7,0.1,0.9,0.4c0.2,0.2,0.3,0.6,0.3,1c0,0.2,0,0.4-0.1,0.6
		l-0.6,3h-1.6l0.6-2.9c0-0.1,0-0.1,0-0.1v-0.1c0-0.1,0-0.2-0.1-0.3c-0.1-0.1-0.2-0.1-0.3-0.1c-0.2,0-0.3,0.1-0.5,0.2
		c-0.1,0.1-0.2,0.3-0.3,0.5L61,34.9L59.5,34.8L59.5,34.8z"/>
	<path fill="#FFFFFF" d="M69.7,32.8h-3c0,0.3,0.1,0.6,0.2,0.7c0.1,0.1,0.3,0.2,0.6,0.2c0.2,0,0.3,0,0.4-0.1s0.2-0.2,0.3-0.4h1.5
		c-0.1,0.5-0.4,0.9-0.8,1.2s-0.9,0.4-1.5,0.4c-0.7,0-1.2-0.2-1.6-0.5c-0.4-0.4-0.6-0.9-0.6-1.6c0-0.4,0.1-0.8,0.2-1.1
		c0.1-0.3,0.3-0.7,0.5-0.9c0.2-0.3,0.5-0.5,0.8-0.6s0.7-0.2,1.1-0.2c0.3,0,0.6,0.1,0.9,0.2s0.5,0.2,0.6,0.4c0.2,0.2,0.3,0.4,0.4,0.6
		s0.1,0.5,0.1,0.8c0,0.2,0,0.4-0.1,0.6V32.8z M67.8,31.1c-0.2,0-0.4,0.1-0.5,0.2c-0.2,0.1-0.3,0.3-0.4,0.6h1.5c0-0.1,0-0.2,0-0.2
		c0-0.2-0.1-0.3-0.2-0.4C68.1,31.1,68,31.1,67.8,31.1z"/>
	<path fill="#FFFFFF" d="M73.8,28.4h1.7l-1.4,6.4h-1.7L73.8,28.4z"/>
	<path fill="#FFFFFF" d="M78.2,34.8l0.6-2.8v-0.1v-0.1c0-0.1,0-0.2-0.1-0.3c-0.1-0.1-0.2-0.1-0.3-0.1c-0.1,0-0.2,0-0.3,0.1
		c-0.1,0-0.2,0.1-0.2,0.1c-0.1,0.1-0.2,0.1-0.2,0.2c-0.1,0.1-0.1,0.2-0.1,0.3L77,34.9h-1.6l1-4.7H78l-0.1,0.6
		c0.4-0.5,0.9-0.7,1.4-0.7c0.2,0,0.4,0,0.6,0.1s0.3,0.2,0.4,0.3c0.1,0.1,0.2,0.3,0.2,0.4c0.1,0.2,0.1,0.4,0.1,0.6s0,0.3-0.1,0.5
		l-0.6,2.9h-1.7V34.8z"/>
	<path fill="#FFFFFF" d="M85.3,33.3c0,0.3-0.1,0.5-0.2,0.7s-0.3,0.4-0.5,0.5s-0.4,0.2-0.7,0.3c-0.3,0.1-0.6,0.1-0.9,0.1
		c-0.7,0-1.2-0.1-1.6-0.4s-0.6-0.7-0.6-1.2h1.5c0,0.2,0.1,0.3,0.2,0.4c0.1,0.1,0.3,0.1,0.5,0.1s0.3,0,0.4-0.1s0.1-0.2,0.1-0.3
		s0-0.2-0.1-0.2c-0.1-0.1-0.2-0.1-0.3-0.1L82.6,33c-0.3-0.1-0.5-0.1-0.7-0.2c-0.2-0.1-0.3-0.2-0.4-0.3s-0.2-0.2-0.2-0.4
		c0-0.1-0.1-0.3-0.1-0.4c0-0.5,0.2-0.9,0.6-1.2c0.4-0.3,0.9-0.4,1.6-0.4c0.3,0,0.5,0,0.8,0.1c0.2,0.1,0.5,0.1,0.6,0.3
		c0.2,0.1,0.3,0.3,0.4,0.4c0.1,0.2,0.2,0.4,0.2,0.7l-1.5,0.1c0-0.2-0.1-0.3-0.2-0.4s-0.2-0.1-0.4-0.1c-0.2,0-0.3,0-0.4,0.1
		c0.1-0.1,0.1,0,0.1,0.1s0,0.2,0.1,0.2c0.1,0.1,0.2,0.1,0.4,0.1l0.4,0.1c0.3,0.1,0.5,0.1,0.7,0.2s0.3,0.2,0.4,0.3s0.2,0.3,0.2,0.4
		C85.3,33,85.3,33.2,85.3,33.3z"/>
	<path fill="#FFFFFF" d="M88.9,35c-0.3,0-0.6-0.1-0.8-0.2c-0.2-0.1-0.4-0.3-0.5-0.5l-0.5,2.3h-1.6l1.4-6.5h1.6l-0.1,0.5
		c0.1-0.2,0.3-0.3,0.6-0.5c0.2-0.1,0.5-0.2,0.8-0.2c0.5,0,0.9,0.2,1.1,0.5c0.3,0.3,0.4,0.8,0.4,1.5c0,0.4-0.1,0.8-0.2,1.2
		s-0.3,0.7-0.5,1s-0.5,0.5-0.7,0.7S89.2,35,88.9,35z M87.9,32.6c0,0.1,0,0.2,0,0.3c0,0.2,0.1,0.4,0.2,0.5s0.3,0.2,0.5,0.2
		s0.3-0.1,0.5-0.2c0.1-0.1,0.2-0.2,0.3-0.4c0.1-0.2,0.1-0.3,0.2-0.5c0-0.2,0.1-0.4,0.1-0.5c0-0.6-0.2-0.8-0.6-0.8
		c-0.2,0-0.4,0.1-0.6,0.3c-0.2,0.2-0.3,0.4-0.3,0.7L87.9,32.6z"/>
	<path fill="#FFFFFF" d="M96.6,32.8h-3c0,0.3,0.1,0.6,0.2,0.7c0.1,0.1,0.3,0.2,0.6,0.2c0.2,0,0.3,0,0.4-0.1s0.2-0.2,0.3-0.4h1.5
		c-0.1,0.5-0.4,0.9-0.8,1.2s-0.9,0.4-1.5,0.4c-0.7,0-1.2-0.2-1.6-0.5C92.2,34,92,33.5,92,32.8c0-0.4,0.1-0.8,0.2-1.1
		c0.1-0.3,0.3-0.7,0.5-0.9c0.2-0.3,0.5-0.5,0.8-0.6s0.7-0.2,1.1-0.2c0.3,0,0.6,0.1,0.9,0.2s0.5,0.2,0.6,0.4c0.2,0.2,0.3,0.4,0.4,0.6
		s0.1,0.5,0.1,0.8c0,0.2,0,0.4-0.1,0.6L96.6,32.8z M94.6,31.1c-0.2,0-0.4,0.1-0.5,0.2c-0.2,0.1-0.3,0.3-0.4,0.6h1.5
		c0-0.1,0-0.2,0-0.2c0-0.2-0.1-0.3-0.2-0.4S94.8,31.1,94.6,31.1z"/>
	<path fill="#FFFFFF" d="M100.6,31.9c0-0.2-0.1-0.4-0.1-0.5c-0.1-0.1-0.2-0.2-0.4-0.2c-0.2,0-0.3,0-0.4,0.1s-0.2,0.2-0.3,0.4
		c-0.1,0.1-0.1,0.3-0.2,0.5c0,0.2-0.1,0.4-0.1,0.6c0,0.3,0,0.5,0.1,0.6s0.2,0.2,0.5,0.2c0.2,0,0.4-0.1,0.5-0.2s0.2-0.3,0.2-0.5h1.6
		c-0.1,0.6-0.4,1.1-0.8,1.4c-0.4,0.4-1,0.5-1.6,0.5c-0.7,0-1.2-0.2-1.5-0.5c-0.4-0.4-0.6-0.9-0.6-1.6c0-0.4,0.1-0.8,0.2-1.1
		c0.1-0.4,0.3-0.7,0.6-0.9c0.2-0.3,0.5-0.5,0.9-0.6c0.3-0.1,0.7-0.2,1.1-0.2c0.6,0,1.1,0.2,1.4,0.5s0.5,0.7,0.5,1.3L100.6,31.9z"/>
	<path fill="#FFFFFF" d="M105.1,31.4l-0.3,1.6v0.1v0.1c0,0.1,0,0.2,0.1,0.3s0.2,0.1,0.3,0.1c0.1,0,0.2,0,0.2,0c0.1,0,0.2,0,0.2,0
		l0.2,1.2c-0.2,0.1-0.3,0.1-0.5,0.1s-0.4,0-0.6,0c-0.5,0-0.9-0.1-1.1-0.3c-0.3-0.2-0.4-0.5-0.4-1c0-0.2,0-0.4,0.1-0.6l0.4-1.7h-0.8
		l0.3-1.3h0.8l0.3-1.2h1.6l-0.3,1.2h1l-0.3,1.3h-1.2V31.4z"/>
	<path fill="#FFFFFF" d="M108.6,35c-0.3,0-0.6,0-0.9-0.1s-0.5-0.2-0.7-0.4s-0.3-0.4-0.4-0.7s-0.2-0.5-0.2-0.9s0.1-0.8,0.2-1.2
		c0.1-0.4,0.3-0.7,0.6-0.9c0.2-0.3,0.5-0.5,0.9-0.6c0.3-0.1,0.7-0.2,1.1-0.2c0.3,0,0.6,0,0.9,0.1s0.5,0.2,0.7,0.4
		c0.2,0.2,0.3,0.4,0.4,0.7c0.1,0.3,0.2,0.5,0.2,0.9s-0.1,0.8-0.2,1.2s-0.3,0.7-0.6,0.9c-0.2,0.3-0.5,0.5-0.9,0.6
		C109.4,34.9,109,35,108.6,35z M109.1,31.3c-0.2,0-0.3,0-0.4,0.1s-0.2,0.2-0.3,0.4c-0.1,0.2-0.2,0.3-0.2,0.5s-0.1,0.4-0.1,0.6
		c0,0.2,0,0.4,0.1,0.6s0.2,0.2,0.5,0.2c0.2,0,0.3,0,0.4-0.1s0.2-0.2,0.3-0.4c0.1-0.2,0.2-0.3,0.2-0.5s0.1-0.4,0.1-0.6
		c0-0.2,0-0.4-0.1-0.6C109.5,31.3,109.3,31.3,109.1,31.3z"/>
	<path fill="#FFFFFF" d="M115.6,31.4c-0.1,0-0.1,0-0.2,0s-0.2,0-0.3,0c-0.4,0-0.7,0.1-0.9,0.3c-0.2,0.2-0.3,0.5-0.4,0.8l-0.5,2.3
		h-1.6l1-4.7h1.6l-0.1,0.6c0.4-0.4,0.8-0.7,1.4-0.7c0.1,0,0.2,0,0.3,0c0.1,0,0.1,0,0.2,0L115.6,31.4z"/>
	<path fill="#FFFFFF" d="M120.3,33.3c0,0.3-0.1,0.5-0.2,0.7s-0.3,0.4-0.5,0.5s-0.4,0.2-0.7,0.3c-0.3,0.1-0.6,0.1-0.9,0.1
		c-0.7,0-1.2-0.1-1.6-0.4s-0.6-0.7-0.6-1.2h1.5c0,0.2,0.1,0.3,0.2,0.4c0.1,0.1,0.3,0.1,0.5,0.1s0.3,0,0.4-0.1s0.1-0.2,0.1-0.3
		s0-0.2-0.1-0.2c-0.1-0.1-0.2-0.1-0.3-0.1l-0.5-0.1c-0.3-0.1-0.5-0.1-0.7-0.2c-0.2-0.1-0.3-0.2-0.4-0.3s-0.2-0.2-0.2-0.4
		c0-0.1-0.1-0.3-0.1-0.4c0-0.5,0.2-0.9,0.6-1.2c0.4-0.3,0.9-0.4,1.6-0.4c0.3,0,0.5,0,0.8,0.1c0.2,0.1,0.5,0.1,0.6,0.3
		c0.2,0.1,0.3,0.3,0.4,0.4c0.1,0.2,0.2,0.4,0.2,0.7l-1.5,0.1c0-0.2-0.1-0.3-0.2-0.4s-0.2-0.1-0.4-0.1c-0.2,0-0.3,0-0.4,0.1
		s-0.1,0.2-0.1,0.3c0,0.1,0,0.2,0.1,0.2c0.1,0.1,0.2,0.1,0.4,0.1l0.4,0.1c0.3,0.1,0.5,0.1,0.7,0.2c0.2,0.1,0.3,0.2,0.4,0.3
		s0.2,0.3,0.2,0.4C120.3,33,120.3,33.2,120.3,33.3z"/>
</g>
</svg>
